<svg width="200" height="200" viewBox="0 0 300 300" fill="none" xmlns="http://www.w3.org/2000/svg">
<g clip-path="url(#clip0_9_2)">
<path d="M25 57.6359H56.1406V188.18H25V57.6359ZM205.016 54L275 188.18H239.578L231.875 173.637H196.625L208.945 149.995H219.555L205.008 121.995L189.781 151.082C187.62 155.237 185.22 159.246 182.594 163.086C176.653 171.608 168.914 178.532 159.998 183.301C151.083 188.07 141.239 190.552 131.258 190.546C96.1797 190.546 67.6016 160.18 67.6016 122.908C67.6016 85.6358 96.1797 55.2701 131.258 55.2701C143.234 55.2701 154.016 58.7234 163.43 64.5425L148.375 93.4472C143.21 90.1369 137.297 88.3781 131.266 88.3586C113.297 88.3586 98.7578 103.815 98.7578 122.908C98.7578 142.001 113.305 157.458 131.266 157.458C141.023 157.458 149.062 153.091 154.883 146.732C157.445 144.001 160.359 139.461 161.211 137.825L205.016 54Z" fill="#FFF6EE"/>
</g>
<path d="M79.128 223.109C78.94 223.109 78.8147 223.062 78.752 222.968C78.6893 222.843 78.6893 222.702 78.752 222.545L81.055 217.469C81.149 217.218 81.3213 217.093 81.572 217.093H91.442C91.7553 217.093 91.912 217.25 91.912 217.563V222.639C91.912 222.952 91.7553 223.109 91.442 223.109H79.128ZM95.079 243.46C94.7657 243.46 94.609 243.303 94.609 242.99V210.56C94.609 210.247 94.7657 210.09 95.079 210.09H100.719C101.032 210.09 101.189 210.247 101.189 210.56V224.566C101.189 225.663 101.612 226.665 102.458 227.574C103.335 228.483 104.62 228.937 106.312 228.937C108.098 228.937 109.508 228.326 110.542 227.104C111.576 225.851 112.093 224.315 112.093 222.498C112.093 220.649 111.529 219.145 110.401 217.986C109.304 216.795 107.722 216.2 105.654 216.2C104.933 216.2 104.072 216.31 103.069 216.529L102.881 216.576C102.63 216.576 102.552 216.404 102.646 216.059L105.231 210.184C105.325 209.996 105.466 209.871 105.654 209.808C105.842 209.777 106.234 209.761 106.829 209.761C109.242 209.761 111.341 210.356 113.127 211.547C114.913 212.706 116.276 214.257 117.216 216.2C118.187 218.143 118.673 220.242 118.673 222.498C118.673 224.754 118.172 226.869 117.169 228.843C116.198 230.786 114.788 232.368 112.939 233.59C111.122 234.781 108.991 235.376 106.547 235.376C104.322 235.376 102.536 234.89 101.189 233.919V242.99C101.189 243.303 101.032 243.46 100.719 243.46H95.079ZM121.7 235C121.387 235 121.23 234.843 121.23 234.53V210.56C121.23 210.247 121.387 210.09 121.7 210.09H126.87C127.183 210.09 127.34 210.247 127.34 210.56V212.816C128.75 210.748 130.834 209.714 133.591 209.714C134.061 209.714 134.406 209.73 134.625 209.761C134.907 209.792 135.048 209.933 135.048 210.184V216.059C135.048 216.247 135.017 216.372 134.954 216.435C134.891 216.466 134.797 216.482 134.672 216.482C134.515 216.482 134.233 216.451 133.826 216.388C133.45 216.325 133.043 216.294 132.604 216.294C131.131 216.294 129.956 216.686 129.079 217.469C128.233 218.221 127.81 219.286 127.81 220.665V234.53C127.81 234.843 127.653 235 127.34 235H121.7ZM137.948 235C137.635 235 137.478 234.843 137.478 234.53V210.56C137.478 210.247 137.635 210.09 137.948 210.09H143.588C143.901 210.09 144.058 210.247 144.058 210.56V234.53C144.058 234.843 143.901 235 143.588 235H137.948ZM140.768 208.022C139.734 208.022 138.841 207.677 138.089 206.988C137.368 206.267 137.008 205.39 137.008 204.356C137.008 203.322 137.368 202.46 138.089 201.771C138.841 201.05 139.734 200.69 140.768 200.69C141.802 200.69 142.679 201.05 143.4 201.771C144.152 202.46 144.528 203.322 144.528 204.356C144.528 205.39 144.152 206.267 143.4 206.988C142.679 207.677 141.802 208.022 140.768 208.022ZM154.582 235.47C152.765 235.47 151.167 235.219 149.788 234.718C148.409 234.217 147.297 233.637 146.451 232.979C146.232 232.791 146.185 232.572 146.31 232.321L148.378 227.621C148.503 227.308 148.723 227.245 149.036 227.433C150.885 228.812 152.733 229.501 154.582 229.501C156.65 229.501 157.684 228.796 157.684 227.386C157.684 226.759 157.402 226.274 156.838 225.929C156.274 225.584 155.365 225.224 154.112 224.848C152.608 224.378 151.37 223.924 150.399 223.485C149.459 223.015 148.629 222.31 147.908 221.37C147.219 220.399 146.874 219.114 146.874 217.516C146.874 216.106 147.219 214.806 147.908 213.615C148.597 212.393 149.631 211.422 151.01 210.701C152.42 209.98 154.128 209.62 156.133 209.62C157.731 209.62 159.157 209.824 160.41 210.231C161.663 210.638 162.666 211.093 163.418 211.594C163.637 211.751 163.684 211.97 163.559 212.252L161.491 216.952C161.397 217.14 161.303 217.234 161.209 217.234C161.115 217.234 160.99 217.187 160.833 217.093C159.047 216.09 157.418 215.589 155.945 215.589C155.13 215.589 154.472 215.761 153.971 216.106C153.47 216.419 153.219 216.889 153.219 217.516C153.219 218.111 153.501 218.566 154.065 218.879C154.66 219.161 155.334 219.427 156.086 219.678C156.869 219.897 157.386 220.038 157.637 220.101C159.58 220.728 161.115 221.558 162.243 222.592C163.402 223.595 163.982 225.161 163.982 227.292C163.982 229.767 163.12 231.757 161.397 233.261C159.705 234.734 157.433 235.47 154.582 235.47ZM178.143 235.47C175.699 235.47 173.521 234.906 171.61 233.778C169.73 232.619 168.257 231.052 167.192 229.078C166.127 227.104 165.594 224.926 165.594 222.545C165.594 220.164 166.095 217.986 167.098 216.012C168.132 214.038 169.558 212.487 171.375 211.359C173.224 210.2 175.323 209.62 177.673 209.62C180.054 209.62 182.122 210.184 183.877 211.312C185.632 212.409 186.963 213.944 187.872 215.918C188.812 217.892 189.282 220.132 189.282 222.639C189.282 223.485 189.235 224.268 189.141 224.989C189.11 225.271 188.953 225.412 188.671 225.412H174.994C174.806 225.412 174.681 225.365 174.618 225.271C174.555 225.146 174.555 225.005 174.618 224.848L176.639 220.242C176.733 219.991 176.921 219.866 177.203 219.866H182.608C182.013 217.234 180.352 215.918 177.626 215.918C175.84 215.918 174.477 216.545 173.537 217.798C172.628 219.051 172.174 220.618 172.174 222.498C172.174 224.378 172.722 225.929 173.819 227.151C174.916 228.373 176.451 228.984 178.425 228.984C180.336 228.984 181.981 228.498 183.36 227.527C183.423 227.464 183.517 227.433 183.642 227.433C183.799 227.433 183.908 227.511 183.971 227.668L186.556 232.274C186.619 232.399 186.65 232.493 186.65 232.556C186.65 232.65 186.572 232.775 186.415 232.932C184.284 234.624 181.527 235.47 178.143 235.47ZM200.236 235.235C197.416 235.235 195.254 234.452 193.75 232.885C192.277 231.318 191.541 229.156 191.541 226.399V203.839C191.541 203.526 191.698 203.369 192.011 203.369H197.651C197.964 203.369 198.121 203.526 198.121 203.839V210.09H202.727C203.04 210.09 203.197 210.247 203.197 210.56V215.589C203.197 215.902 203.04 216.059 202.727 216.059H198.121V225.788C198.121 226.885 198.372 227.715 198.873 228.279C199.406 228.812 200.252 229.078 201.411 229.078C201.756 229.078 202.038 229.062 202.257 229.031C202.476 229 202.664 228.984 202.821 228.984C203.072 228.984 203.197 229.109 203.197 229.36V234.436C203.197 234.718 203.072 234.89 202.821 234.953C202.163 235.141 201.301 235.235 200.236 235.235ZM209.488 225.365C209.175 225.365 209.018 225.208 209.018 224.895V224.096C209.018 222.623 209.284 221.401 209.817 220.43C210.35 219.427 211.258 218.221 212.543 216.811C213.796 215.495 214.627 214.492 215.034 213.803C215.473 213.082 215.692 212.283 215.692 211.406C215.692 210.529 215.379 209.808 214.752 209.244C214.157 208.649 213.279 208.351 212.12 208.351C211.274 208.351 210.459 208.539 209.676 208.915C208.924 209.291 208.297 209.73 207.796 210.231C207.702 210.325 207.608 210.372 207.514 210.372C207.389 210.372 207.279 210.294 207.185 210.137L204.835 204.873C204.804 204.81 204.788 204.732 204.788 204.638C204.788 204.481 204.851 204.34 204.976 204.215C206.981 202.492 209.441 201.63 212.355 201.63C214.674 201.63 216.585 202.084 218.089 202.993C219.624 203.902 220.752 205.061 221.473 206.471C222.194 207.881 222.554 209.354 222.554 210.889C222.554 212.581 222.209 214.054 221.52 215.307C220.831 216.529 219.703 218.002 218.136 219.725C217.008 220.978 216.225 221.95 215.786 222.639C215.379 223.328 215.175 224.033 215.175 224.754V224.895C215.175 225.208 215.018 225.365 214.705 225.365H209.488ZM212.073 235.282C210.976 235.282 210.052 234.906 209.3 234.154C208.548 233.371 208.172 232.462 208.172 231.428C208.172 230.394 208.548 229.501 209.3 228.749C210.052 227.966 210.976 227.574 212.073 227.574C213.17 227.574 214.094 227.966 214.846 228.749C215.598 229.501 215.974 230.394 215.974 231.428C215.974 232.462 215.598 233.371 214.846 234.154C214.094 234.906 213.17 235.282 212.073 235.282Z" fill="#FFF6EE"/>
<defs>
<clipPath id="clip0_9_2">
<rect width="250" height="136.546" fill="#FFF6EE" transform="translate(25 54)"/>
</clipPath>
</defs>
</svg>
