<svg width="200" height="200" viewBox="0 0 200 200" fill="none" xmlns="http://www.w3.org/2000/svg">
<g clip-path="url(#clip0_12_2)">
<rect width="200" height="200" fill="#404137"/>
<circle cx="100" cy="100" r="80" fill="#FFEB83"/>
<circle cx="100" cy="100" r="24" fill="#404137"/>
<circle cx="100" cy="100" r="24" fill="#404137"/>
<circle cx="100" cy="100" r="8" fill="white"/>
<mask id="path-4-inside-1_12_2" fill="white">
<path d="M165.186 90.1272C162.805 75.0505 155.31 61.2517 143.96 51.047L132.523 63.7678C140.954 71.3476 146.521 81.5969 148.29 92.7954L165.186 90.1272Z"/>
</mask>
<path d="M165.186 90.1272C162.805 75.0505 155.31 61.2517 143.96 51.047L132.523 63.7678C140.954 71.3476 146.521 81.5969 148.29 92.7954L165.186 90.1272Z" fill="#D9D9D9" stroke="#E3D16E" stroke-width="36" mask="url(#path-4-inside-1_12_2)"/>
<mask id="path-5-inside-2_12_2" fill="white">
<path d="M34.4467 114.296C37.6133 129.228 45.82 142.616 57.6893 152.212L68.4443 138.91C59.6281 131.782 53.5325 121.838 51.1804 110.748L34.4467 114.296Z"/>
</mask>
<path d="M34.4467 114.296C37.6133 129.228 45.82 142.616 57.6893 152.212L68.4443 138.91C59.6281 131.782 53.5325 121.838 51.1804 110.748L34.4467 114.296Z" fill="#D9D9D9" stroke="#E3D16E" stroke-width="36" mask="url(#path-5-inside-2_12_2)"/>
<ellipse cx="2.04412" cy="162.593" rx="22.5966" ry="17.7829" fill="#B4CFEF"/>
<rect y="145" width="104" height="35" fill="#B4CFEF"/>
<ellipse cx="36.4771" cy="149.963" rx="25.4661" ry="18.7801" fill="#B4CFEF"/>
<ellipse cx="36.4771" cy="135.337" rx="25.4661" ry="18.7801" fill="#B4CFEF"/>
<ellipse cx="61.4661" cy="149.78" rx="25.4661" ry="18.7801" fill="#B4CFEF"/>
<ellipse cx="87.4091" cy="153.785" rx="16.4991" ry="19.2786" fill="#B4CFEF"/>
<ellipse cx="103.5" cy="161" rx="16.5" ry="19" fill="#B4CFEF"/>
<ellipse cx="11.1903" cy="141.819" rx="20.2652" ry="33.5714" fill="#B4CFEF"/>
</g>
<defs>
<clipPath id="clip0_12_2">
<rect width="200" height="200" fill="white"/>
</clipPath>
</defs>
</svg>
