<svg width="180" height="180" viewBox="0 0 180 180" fill="none" xmlns="http://www.w3.org/2000/svg">
<path fill-rule="evenodd" clip-rule="evenodd" d="M88.1818 27.6842V16H91.8182V27.6842H95.4545V35.4737H99.0909V43.2632H102.727V51.0526H106.364V54.9474H110V58.8421H113.636V62.7368H117.273V66.6316H120.909V70.5263H124.545V74.4211H128.182V78.3158H131.818V82.2105H135.455V86.1053H139.091V90H142.727V97.7895H146.364V105.579H150V128.947H142.727V132.842H135.455V136.737H110V132.842H102.727V128.947H99.0909V121.158H95.4545V144.526H99.0909V148.421H102.727V152.316H106.364V156.211H99.0909V160.105H91.8182V164H88.1818V160.105H80.9091V156.211H73.6364V152.316H77.2727V148.421H80.9091V144.526H84.5455V121.158H80.9091V128.947H77.2727V132.842H70V136.737H44.5455V132.842H37.2727V128.947H30V105.579H33.6364V97.7895H37.2727V90H40.9091V86.1053H44.5455V82.2105H48.1818V78.3158H51.8182V74.4211H55.4545V70.5263H59.0909V66.6316H62.7273V62.7368H66.3636V58.8421H70V54.9474H73.6364V51.0526H77.2727V43.2632H80.9091V35.4737H84.5455V27.6842H88.1818Z" stroke="black" stroke-width="4"/>
</svg>
